<svg aria-hidden="true" style="position: absolute; width: 0; height: 0; overflow: hidden;" version="1.1" xmlns="http://www.w3.org/2000/svg" xmlns:xlink="http://www.w3.org/1999/xlink">
<defs>
<symbol id="icon-arrow-right" viewBox="0 0 32 32">
<path stroke-linejoin="miter" stroke-linecap="square" stroke-miterlimit="4" stroke-width="0.6667" d="M3 16.267h25M28 16.267c0 0-2.992-1.968-3.6-3.6M28 16.267c0 0-2.645 1.849-3.6 3.6"></path>
</symbol>
<symbol id="icon-Bag" viewBox="0 0 32 32">
<path d="M16.007 2.667c3.573 0 6.511 2.808 6.66 6.366h-0.035c0.004 0.103-0.016 0.206-0.058 0.301h0.208c1.623 0 3.322 1.125 4.003 3.84l0.074 0.32 1.025 8.26c0.738 5.268-2.144 7.483-6.076 7.577l-0.264 0.003h-11.053c-3.996 0-7.075-1.456-6.398-7.222l0.046-0.358 1.037-8.26c0.511-2.924 2.228-4.077 3.882-4.156l0.183-0.004h0.104c-0.018-0.1-0.018-0.201 0-0.301 0.149-3.558 3.087-6.366 6.66-6.366zM12.129 13.772c-0.651 0-1.178 0.543-1.178 1.213s0.528 1.213 1.178 1.213c0.651 0 1.178-0.543 1.178-1.213l-0.009-0.152c-0.073-0.598-0.568-1.061-1.169-1.061zM19.848 13.772c-0.651 0-1.178 0.543-1.178 1.213s0.528 1.213 1.178 1.213c0.651 0 1.178-0.543 1.178-1.213s-0.528-1.213-1.178-1.213zM15.954 4.403c-2.565 0-4.645 2.073-4.645 4.629 0.018 0.1 0.018 0.201 0 0.301h9.349c-0.037-0.096-0.057-0.198-0.058-0.301 0-2.557-2.080-4.629-4.645-4.629z"></path>
</symbol>
<symbol id="icon-black-arrow-left" viewBox="0 0 32 32">
<path stroke-linejoin="miter" stroke-linecap="square" stroke-miterlimit="4" stroke-width="2.4845" d="M25.938 16.498h-19.669M6.269 16.498c0 0 5.575-3.667 6.708-6.708M6.269 16.498c0 0 4.929 3.445 6.708 6.708"></path>
</symbol>
<symbol id="icon-black-arrow-right" viewBox="0 0 32 32">
<path stroke-linejoin="miter" stroke-linecap="square" stroke-miterlimit="4" stroke-width="2.4845" d="M6.062 16.498h19.669M25.731 16.498c0 0-5.575-3.667-6.708-6.708M25.731 16.498c0 0-4.929 3.445-6.708 6.708"></path>
</symbol>
<symbol id="icon-facebook" viewBox="0 0 32 32">
<path d="M21.040 5.272h2.899v-5.049c-0.5-0.069-2.22-0.224-4.223-0.224-4.179 0-7.042 2.629-7.042 7.46v4.447h-4.612v5.644h4.612v14.201h5.654v-14.2h4.425l0.703-5.644h-5.129v-3.888c0.001-1.631 0.441-2.748 2.713-2.748z"></path>
</symbol>
<symbol id="icon-instagram" viewBox="0 0 32 32">
<path d="M10 0h12c5.522 0 10 4.478 10 10v12c0 5.522-4.478 10-10 10h-12c-5.522 0-10-4.478-10-10v-12c0-5.522 4.478-10 10-10zM22 29c3.86 0 7-3.14 7-7v-12c0-3.86-3.14-7-7-7h-12c-3.86 0-7 3.14-7 7v12c0 3.86 3.14 7 7 7h12z"></path>
<path d="M8 16c0-4.418 3.582-8 8-8s8 3.582 8 8c0 4.418-3.582 8-8 8s-8-3.582-8-8zM11 16c0 2.756 2.244 5 5 5s5-2.244 5-5c0-2.758-2.244-5-5-5s-5 2.242-5 5z"></path>
<path d="M25.666 7.4c0 0.589-0.477 1.066-1.066 1.066s-1.066-0.477-1.066-1.066c0-0.589 0.477-1.066 1.066-1.066s1.066 0.477 1.066 1.066z"></path>
</symbol>
<symbol id="icon-plus" viewBox="0 0 32 32">
<path d="M28.332 15.629c0-0.984-0.798-1.783-1.783-1.783h-8.913v-8.913c0-0.985-0.798-1.783-1.783-1.783s-1.783 0.798-1.783 1.783v8.913h-8.913c-0.984 0-1.783 0.798-1.783 1.783s0.798 1.783 1.783 1.783h8.913v8.913c0 0.984 0.798 1.783 1.783 1.783s1.783-0.798 1.783-1.783v-8.913h8.913c0.985 0 1.783-0.798 1.783-1.783z"></path>
</symbol>
<symbol id="icon-search" viewBox="0 0 32 32">
<path stroke-linejoin="miter" stroke-linecap="round" stroke-miterlimit="4" stroke-width="3.5556" d="M28 28l-5.981-5.992M25.333 14c0 3.006-1.194 5.889-3.319 8.014s-5.008 3.319-8.014 3.319-5.888-1.194-8.014-3.319c-2.125-2.125-3.319-5.008-3.319-8.014s1.194-5.888 3.319-8.014c2.125-2.125 5.008-3.319 8.014-3.319s5.889 1.194 8.014 3.319c2.125 2.125 3.319 5.008 3.319 8.014z"></path>
</symbol>
<symbol id="icon-Star" viewBox="0 0 32 32">
<path d="M23.533 18.372c-0.332 0.322-0.485 0.788-0.409 1.244l1.14 6.311c0.096 0.535-0.13 1.076-0.577 1.385-0.439 0.321-1.022 0.359-1.501 0.103l-5.681-2.963c-0.198-0.105-0.417-0.162-0.641-0.168h-0.348c-0.121 0.018-0.239 0.056-0.346 0.116l-5.682 2.977c-0.281 0.141-0.599 0.191-0.911 0.141-0.759-0.144-1.266-0.867-1.142-1.63l1.142-6.311c0.076-0.46-0.077-0.929-0.409-1.256l-4.632-4.49c-0.387-0.376-0.522-0.94-0.345-1.449 0.172-0.508 0.611-0.879 1.14-0.962l6.375-0.925c0.485-0.050 0.911-0.345 1.129-0.781l2.809-5.759c0.067-0.128 0.153-0.246 0.257-0.346l0.115-0.090c0.060-0.067 0.13-0.122 0.207-0.167l0.14-0.051 0.218-0.090h0.54c0.482 0.050 0.907 0.339 1.129 0.77l2.846 5.734c0.205 0.419 0.604 0.711 1.065 0.781l6.375 0.925c0.539 0.077 0.989 0.449 1.167 0.962 0.168 0.514 0.023 1.079-0.372 1.449l-4.797 4.541z"></path>
</symbol>
<symbol id="icon-Star-transparent" viewBox="0 0 32 32">
<path fill="#f6973f" style="fill: var(--color1, #f6973f)" opacity="0.3" d="M23.364 18.713c-0.322 0.312-0.47 0.764-0.397 1.207l1.106 6.123c0.093 0.519-0.126 1.044-0.56 1.344-0.426 0.311-0.992 0.348-1.456 0.1l-5.512-2.875c-0.192-0.102-0.404-0.157-0.622-0.163h-0.337c-0.117 0.017-0.231 0.055-0.336 0.112l-5.513 2.889c-0.273 0.137-0.581 0.185-0.884 0.137-0.737-0.139-1.228-0.841-1.108-1.582l1.108-6.123c0.073-0.447-0.075-0.901-0.397-1.218l-4.494-4.356c-0.376-0.365-0.506-0.912-0.335-1.406 0.167-0.493 0.592-0.852 1.106-0.933l6.185-0.897c0.47-0.049 0.884-0.335 1.095-0.758l2.725-5.588c0.065-0.124 0.148-0.239 0.249-0.336l0.112-0.087c0.059-0.065 0.126-0.118 0.2-0.162l0.136-0.050 0.212-0.087h0.524c0.468 0.049 0.88 0.329 1.095 0.747l2.761 5.563c0.199 0.407 0.586 0.689 1.033 0.758l6.185 0.897c0.523 0.075 0.96 0.436 1.133 0.933 0.163 0.499 0.022 1.047-0.361 1.406l-4.654 4.405z"></path>
</symbol>
<symbol id="icon-twitter" viewBox="0 0 32 32">
<path d="M31.289 6.21c-1.164 0.51-2.404 0.849-3.696 1.013 1.33-0.794 2.345-2.042 2.822-3.545-1.24 0.739-2.609 1.261-4.068 1.553-1.177-1.254-2.855-2.030-4.685-2.030-3.551 0-6.41 2.882-6.41 6.416 0 0.508 0.043 0.997 0.149 1.463-5.333-0.26-10.052-2.816-13.222-6.71-0.553 0.96-0.878 2.059-0.878 3.242 0 2.222 1.144 4.191 2.849 5.331-1.031-0.020-2.042-0.319-2.898-0.79 0 0.020 0 0.045 0 0.070 0 3.117 2.223 5.706 5.139 6.303-0.522 0.143-1.091 0.211-1.682 0.211-0.411 0-0.825-0.023-1.214-0.11 0.831 2.54 3.19 4.408 5.994 4.468-2.182 1.707-4.953 2.736-7.953 2.736-0.526 0-1.031-0.024-1.535-0.088 2.841 1.832 6.209 2.879 9.84 2.879 11.804 0 18.257-9.778 18.257-18.253 0-0.284-0.010-0.557-0.024-0.829 1.273-0.903 2.343-2.032 3.215-3.33z"></path>
</symbol>
</defs>
</svg>
